<?xml version="1.0" standalone="no"?>
<!DOCTYPE svg PUBLIC "-//W3C//DTD SVG 20010904//EN"
 "http://www.w3.org/TR/2001/REC-SVG-20010904/DTD/svg10.dtd">
<svg version="1.0" xmlns="http://www.w3.org/2000/svg"
 width="864.000000pt" height="263.000000pt" viewBox="0 0 864.000000 263.000000"
 preserveAspectRatio="xMidYMid meet">

<g transform="translate(0.000000,263.000000) scale(0.100000,-0.100000)"
fill="#000000" stroke="none">
<path d="M3415 2178 c-11 -6 -32 -22 -47 -35 -25 -24 -28 -24 -49 -9 -22 15
-59 22 -59 11 0 -3 9 -24 21 -46 14 -29 19 -55 17 -92 -3 -48 -5 -52 -30 -55
-25 -3 -28 -8 -28 -38 0 -32 2 -34 32 -34 l31 0 -6 -199 c-3 -110 -10 -209
-16 -220 -10 -17 -4 -22 55 -50 l66 -31 61 55 c33 30 64 55 67 55 4 0 15 -21
25 -46 9 -25 24 -48 32 -51 9 -4 34 13 64 43 52 51 61 69 29 59 -15 -5 -20 -1
-24 17 -23 118 -31 144 -62 189 -19 28 -34 54 -34 57 0 4 23 30 51 58 l52 52
-48 59 c-26 32 -51 58 -56 58 -5 0 -36 -31 -70 -70 -34 -38 -67 -72 -72 -74
-7 -2 -8 44 -3 139 5 119 10 147 26 170 11 16 20 31 20 34 0 9 -23 6 -45 -6z
m122 -345 l25 -32 -69 -75 c-37 -40 -71 -74 -75 -75 -5 -1 -8 27 -8 62 0 63 8
85 54 135 25 29 42 25 73 -15z m-37 -215 c36 -58 36 -76 0 -113 -32 -33 -34
-33 -61 -19 -26 13 -29 20 -29 60 0 32 7 54 23 74 29 38 43 37 67 -2z"/>
<path d="M5134 2112 c-70 -65 -85 -86 -104 -139 -13 -36 -30 -65 -39 -68 -10
-3 -30 -18 -45 -34 -82 -86 17 -229 172 -248 35 -4 52 -10 52 -20 0 -11 -15
-13 -83 -7 -73 6 -88 4 -125 -15 -104 -53 -104 -164 1 -211 57 -26 104 -25
215 7 l93 27 73 -39 74 -39 88 44 c92 47 169 113 200 171 28 52 24 136 -9 192
-47 80 -142 144 -249 167 -32 7 -58 15 -58 17 0 2 25 46 55 98 30 51 55 96 55
99 0 15 -30 4 -40 -14 -10 -19 -15 -18 -120 35 -60 30 -113 55 -117 55 -5 0
-45 -35 -89 -78z m160 -80 c85 -46 95 -59 71 -95 -17 -26 -20 -27 -120 -27
-113 0 -129 8 -141 68 -5 26 -1 36 24 62 41 41 79 39 166 -8z m-182 -237 c21
-8 65 -15 98 -15 64 0 66 -1 50 -31 -12 -21 -69 -25 -149 -10 -78 15 -134 77
-110 122 11 22 12 22 43 -14 17 -20 48 -44 68 -52z m386 -41 c43 -17 97 -67
118 -106 34 -65 2 -170 -67 -219 l-31 -22 -36 21 c-20 11 -38 25 -40 30 -1 5
16 14 40 21 90 28 125 108 72 171 -40 47 -80 64 -171 70 -45 3 -86 9 -89 13
-4 4 1 16 12 28 17 19 26 21 87 15 38 -3 85 -13 105 -22z m-44 -164 c11 -8 14
-20 10 -34 -8 -26 -54 -76 -69 -76 -11 0 -185 77 -193 85 -2 2 -1 13 3 25 7
22 11 22 120 18 74 -3 119 -9 129 -18z m-312 -138 c43 -15 78 -30 78 -34 0
-14 -108 -41 -167 -42 -95 -1 -149 48 -103 94 26 26 77 21 192 -18z"/>
<path d="M4080 2117 l0 -53 65 -54 c36 -30 65 -57 65 -61 0 -3 -20 -14 -44
-23 -29 -11 -46 -24 -50 -39 -3 -12 -6 -94 -6 -182 0 -131 -3 -165 -16 -183
-9 -13 -14 -25 -13 -26 2 -2 29 -11 59 -21 30 -10 74 -31 98 -47 24 -16 48
-27 55 -24 7 3 46 25 87 49 l75 43 5 229 c3 127 4 231 3 233 0 2 -10 -2 -21
-9 -14 -9 -24 -10 -34 -3 -83 64 -309 224 -318 224 -6 0 -10 -23 -10 -53z
m230 -243 l40 -36 0 -159 c0 -87 -4 -160 -9 -163 -5 -3 -35 6 -66 20 l-58 25
5 162 c2 90 8 168 12 175 12 20 34 13 76 -24z"/>
<path d="M2347 2040 c-45 -40 -47 -41 -76 -25 -47 24 -55 18 -30 -21 22 -36
22 -38 15 -317 -7 -260 -9 -284 -27 -310 l-20 -28 38 -15 c21 -9 53 -27 71
-41 l33 -25 49 53 c49 54 64 87 34 75 -8 -3 -29 1 -46 10 l-31 16 7 272 c7
270 16 345 42 367 8 6 14 15 14 20 0 20 -30 7 -73 -31z"/>
<path d="M5862 1916 c-40 -52 -72 -97 -72 -99 0 -3 9 -7 20 -10 19 -5 20 -14
20 -176 0 -130 -4 -180 -15 -208 l-15 -36 59 -54 c33 -30 62 -55 65 -56 9 -4
116 79 116 91 0 15 -22 16 -36 2 -7 -7 -19 -1 -37 18 l-27 29 2 184 c3 206 -4
190 81 176 38 -6 38 -6 35 26 -2 19 -9 33 -18 34 -8 1 -32 4 -52 8 l-38 6 0
79 c0 44 -4 80 -8 80 -4 0 -40 -42 -80 -94z"/>
<path d="M3876 1971 c-22 -17 -55 -41 -75 -53 -20 -12 -39 -27 -43 -32 -4 -6
-8 -90 -8 -186 -1 -133 -4 -181 -15 -200 -20 -35 -19 -38 19 -46 19 -3 49 -17
67 -30 18 -13 40 -24 49 -24 15 0 162 113 168 130 8 21 -19 18 -46 -5 -36 -30
-42 -31 -92 -5 -39 20 -40 21 -40 78 l-1 57 100 95 101 95 -73 78 -72 79 -39
-31z m44 -138 l41 -47 -43 -37 c-24 -21 -46 -38 -50 -39 -5 0 -8 38 -8 85 0
47 4 85 9 85 5 0 28 -21 51 -47z"/>
<path d="M3054 1921 c-15 -17 -44 -42 -65 -57 l-39 -27 0 -174 c0 -130 -4
-182 -15 -209 -11 -27 -11 -36 -2 -39 7 -2 28 -8 47 -14 19 -6 48 -20 64 -30
l30 -20 49 42 c27 23 61 52 76 64 19 15 23 25 15 33 -8 8 -18 5 -36 -10 -32
-25 -45 -25 -85 0 l-33 20 0 165 c0 177 1 178 50 150 14 -8 33 -14 42 -15 15
0 58 56 58 77 0 10 -101 73 -118 73 -6 0 -24 -13 -38 -29z"/>
<path d="M1690 1930 c-20 -5 -27 -15 -37 -60 -10 -47 -10 -73 0 -59 18 23 67
113 65 118 -2 4 -14 5 -28 1z"/>
<path d="M6560 1884 c1 -58 2 -60 65 -129 l65 -70 -50 -14 -50 -14 0 -171 c0
-135 -3 -177 -16 -201 -8 -16 -11 -31 -6 -33 26 -8 131 -77 159 -104 l31 -30
65 26 c36 14 72 26 81 26 8 0 17 3 19 8 3 4 8 112 12 240 7 231 6 233 -13 221
-18 -11 -29 -5 -100 59 -43 39 -85 79 -92 87 -7 8 -48 47 -91 86 l-79 71 0
-58z m221 -291 l42 -48 -2 -160 c-1 -88 -4 -161 -6 -164 -2 -2 -29 13 -60 33
l-55 37 0 168 c0 92 3 171 7 174 14 15 33 5 74 -40z"/>
<path d="M2625 1862 c-28 -25 -65 -51 -82 -59 l-33 -13 0 -168 c-1 -112 -5
-179 -14 -204 -15 -41 -12 -48 16 -48 11 0 53 -14 93 -31 l74 -30 90 61 91 61
0 203 c0 217 0 216 -48 216 -9 0 -44 13 -77 29 l-61 28 -49 -45z m91 -97 l37
-15 -6 -93 c-4 -50 -7 -127 -7 -169 l0 -77 -60 21 -60 20 0 170 0 171 29 -6
c17 -4 47 -13 67 -22z"/>
<path d="M6133 1798 c-56 -43 -65 -58 -34 -58 10 0 22 -8 26 -17 3 -10 5 -101
4 -204 -2 -175 -1 -188 19 -221 46 -74 50 -74 130 -18 39 27 73 50 75 50 3 0
7 -18 11 -39 7 -43 49 -101 73 -101 21 0 104 70 97 82 -3 5 -12 7 -19 4 -32
-12 -38 22 -36 202 2 142 5 180 17 194 19 20 10 39 -40 87 l-35 34 -40 -32
c-23 -18 -41 -35 -41 -37 0 -3 7 -16 16 -29 14 -21 15 -46 9 -172 l-7 -148
-38 -28 c-46 -33 -56 -33 -72 -4 -18 33 -12 346 8 368 22 25 17 42 -28 87
l-43 41 -52 -41z"/>
<path d="M7113 1773 c-6 -27 -9 -50 -6 -53 3 -3 22 15 44 40 39 46 38 60 -7
60 -16 0 -23 -9 -31 -47z"/>
<path d="M1984 1739 l-57 -70 -26 48 c-37 68 -56 67 -113 -3 -26 -32 -44 -62
-42 -66 3 -5 12 -4 20 3 11 9 17 9 29 -1 12 -10 15 -42 15 -167 0 -150 -1
-155 -25 -178 -13 -14 -29 -25 -35 -25 -6 0 -10 -8 -8 -17 2 -12 13 -18 33
-18 l30 0 -1 -65 c0 -46 -7 -77 -23 -108 -12 -24 -20 -46 -18 -49 3 -2 22 10
42 28 30 27 40 31 53 21 40 -28 75 -43 89 -38 12 5 11 11 -8 38 -26 36 -39
140 -20 152 6 4 28 2 47 -4 l36 -12 74 73 74 73 0 165 c0 147 -2 169 -21 208
-18 36 -64 83 -83 83 -3 0 -31 -32 -62 -71z m33 -71 c22 -21 23 -27 23 -179 0
-87 -3 -160 -7 -162 -5 -2 -33 1 -63 7 l-55 11 4 135 c3 132 4 136 33 172 16
21 32 38 36 38 3 0 16 -10 29 -22z"/>
<path d="M780 1700 c-41 -11 -149 -46 -239 -80 -90 -33 -171 -60 -181 -60 -10
0 -23 7 -30 15 -20 25 -30 17 -30 -22 0 -47 31 -100 64 -109 14 -3 58 5 107
21 46 14 93 28 103 32 13 4 5 -12 -26 -50 -57 -70 -87 -130 -101 -206 -11 -58
-13 -60 -59 -82 -54 -25 -92 -61 -108 -103 -15 -40 -5 -44 28 -13 34 33 55 34
82 5 40 -43 18 -136 -56 -235 -40 -53 -27 -50 32 7 81 80 170 201 187 257 10
30 17 102 20 195 4 135 6 149 30 190 14 25 34 51 43 59 16 13 17 11 10 -26
-19 -97 -26 -167 -26 -265 0 -147 -14 -172 -190 -360 -139 -147 -168 -193 -69
-107 134 116 299 175 490 177 42 0 49 4 87 48 22 27 63 66 91 87 l51 39 0 163
c0 179 -9 238 -50 329 -48 107 -116 132 -260 94z m101 -145 c38 -20 69 -71 69
-113 0 -62 -105 -128 -168 -106 -27 9 -27 10 -27 114 0 103 0 104 25 111 42
12 69 10 101 -6z m-163 -371 l-3 -127 -42 -12 c-23 -7 -44 -10 -47 -8 -3 3 2
20 11 37 13 23 18 72 24 201 6 167 20 253 43 267 13 8 19 -143 14 -358z m242
115 c0 -71 0 -71 -25 -65 -33 8 -112 -10 -146 -34 -15 -11 -30 -20 -33 -20 -3
0 -6 29 -6 64 l0 64 64 4 c50 3 71 9 97 30 19 15 37 27 42 28 4 0 7 -32 7 -71z
m-26 -99 c24 -9 26 -14 26 -70 l0 -60 -85 -2 c-47 -1 -95 -2 -107 -2 -16 -1
-24 6 -26 21 -5 33 15 61 66 94 48 30 83 36 126 19z"/>
<path d="M1581 1676 c-37 -38 -41 -47 -32 -64 7 -13 11 -97 11 -229 0 -173 3
-212 16 -231 26 -37 57 -28 109 33 26 31 45 59 41 62 -3 3 -12 0 -20 -6 -31
-26 -36 -2 -36 181 0 152 3 184 17 209 17 29 17 29 -17 59 -19 16 -37 29 -40
30 -3 0 -25 -20 -49 -44z"/>
<path d="M1381 1623 c-31 -34 -54 -53 -57 -46 -11 26 -46 63 -59 63 -17 0
-106 -111 -98 -122 2 -5 11 -4 18 2 9 7 16 6 25 -4 18 -23 14 -307 -5 -353
-16 -37 -13 -53 9 -53 7 0 30 -11 51 -25 20 -14 41 -25 45 -23 15 6 120 133
120 145 0 20 -18 15 -30 -7 -13 -24 -37 -26 -61 -4 -16 15 -17 31 -12 173 5
139 8 158 26 179 l21 22 26 -25 c14 -14 29 -25 33 -25 10 0 76 74 77 86 0 10
-61 74 -71 74 -3 0 -29 -26 -58 -57z"/>
<path d="M7038 1614 c-42 -27 -42 -27 -27 -56 7 -14 11 -91 10 -224 -2 -169 1
-210 14 -238 25 -52 51 -58 105 -24 50 32 58 53 20 53 l-25 0 -3 191 c-2 161
0 193 13 204 8 7 15 17 15 22 0 12 -70 98 -79 97 -3 0 -23 -11 -43 -25z"/>
<path d="M7358 1538 c-21 -11 -56 -22 -78 -25 l-40 -6 0 -166 c0 -131 -3 -172
-16 -196 -14 -28 -14 -31 1 -40 10 -5 55 -40 101 -77 46 -37 90 -65 97 -63 6
2 45 13 85 25 l72 21 0 207 0 207 -44 28 c-24 15 -64 45 -89 67 -25 22 -47 40
-49 39 -1 0 -20 -9 -40 -21z m62 -115 l50 -37 0 -168 c0 -92 -4 -168 -9 -168
-4 0 -31 18 -60 41 l-51 41 0 164 c0 105 4 164 10 164 6 0 33 -17 60 -37z"/>
<path d="M8050 1505 c0 -9 11 -20 25 -25 23 -9 24 -14 27 -92 3 -70 6 -83 21
-86 15 -3 17 6 17 72 0 79 4 85 44 70 13 -5 16 -23 16 -90 0 -68 3 -84 15 -84
10 0 15 11 15 35 0 47 17 44 25 -4 7 -42 30 -71 44 -55 5 5 15 27 22 49 l14
40 3 -58 c3 -49 6 -58 20 -55 14 3 17 18 20 96 3 91 2 92 -23 102 -15 6 -28
10 -30 10 -2 0 -9 -19 -15 -42 -19 -75 -23 -75 -40 -3 l-17 70 -89 32 c-101
37 -114 39 -114 18z"/>
<path d="M7984 1449 c-3 -6 2 -26 12 -45 17 -31 17 -35 2 -50 -23 -23 -51 -14
-125 41 -35 25 -68 45 -74 45 -6 0 -24 -9 -39 -20 -16 -11 -42 -23 -58 -26
l-30 -6 -4 -102 -4 -101 50 -52 49 -52 -66 -82 c-37 -45 -64 -86 -61 -91 3 -5
19 -6 34 -3 40 9 100 -10 150 -46 l44 -32 45 16 c25 8 58 18 74 21 l27 6 0
118 0 118 -45 44 c-25 24 -45 49 -45 55 1 5 28 41 60 79 65 75 75 110 44 154
-17 24 -29 28 -40 11z m-188 -120 c4 -6 33 -23 65 -38 l59 -27 -41 -49 c-23
-28 -45 -52 -51 -54 -5 -2 -20 7 -34 20 -21 20 -24 31 -24 91 0 63 9 84 26 57z
m93 -245 c29 -32 31 -40 27 -87 -2 -29 -5 -60 -5 -69 -1 -14 -11 -10 -58 18
-31 19 -64 34 -72 34 -44 1 -42 17 9 78 29 34 55 62 60 62 4 0 22 -16 39 -36z"/>
</g>
</svg>
